<?xml version="1.0" encoding="utf-8"?>
<!-- Generator: Adobe Illustrator 25.4.1, SVG Export Plug-In . SVG Version: 6.00 Build 0)  -->
<svg version="1.1" id="Layer_1" xmlns="http://www.w3.org/2000/svg" xmlns:xlink="http://www.w3.org/1999/xlink" x="0px" y="0px"
	 viewBox="0 0 1000 137" style="enable-background:new 0 0 1000 137;" xml:space="preserve">
<style type="text/css">
	.st0{fill:url(#SVGID_1_);}
	.st1{fill:url(#SVGID_00000080894492011775313190000006030627991091163019_);}
</style>
<g>
	<path d="M209.31,37.41v53.11h29.34v9.61h-40.83V37.41H209.31z"/>
	<path d="M291.34,77.44c0,3.56-0.53,6.81-1.59,9.75c-1.06,2.94-2.59,5.45-4.57,7.55c-1.98,2.09-4.38,3.71-7.2,4.85
		s-5.95,1.71-9.42,1.71c-3.56,0-6.76-0.57-9.59-1.71c-2.83-1.14-5.23-2.76-7.2-4.85s-3.48-4.61-4.52-7.55
		c-1.05-2.94-1.57-6.19-1.57-9.75s0.53-6.81,1.59-9.75c1.06-2.94,2.59-5.45,4.57-7.55c1.98-2.09,4.38-3.71,7.2-4.85
		s5.95-1.71,9.42-1.71c3.56,0,6.76,0.57,9.59,1.71c2.83,1.14,5.23,2.76,7.2,4.85s3.48,4.61,4.52,7.55
		C290.82,70.63,291.34,73.88,291.34,77.44z M279.86,77.44c0-2.41-0.28-4.53-0.84-6.38s-1.34-3.39-2.34-4.64
		c-1-1.25-2.2-2.19-3.61-2.81s-2.94-0.94-4.59-0.94c-1.63,0-3.13,0.31-4.52,0.94c-1.39,0.63-2.59,1.56-3.59,2.81
		c-1,1.25-1.78,2.8-2.34,4.64s-0.84,3.97-0.84,6.38s0.28,4.53,0.84,6.38s1.35,3.38,2.37,4.62c1.02,1.23,2.22,2.17,3.61,2.81
		c1.39,0.64,2.91,0.96,4.57,0.96c1.66,0,3.17-0.32,4.55-0.96c1.38-0.64,2.56-1.58,3.56-2.81c1-1.23,1.78-2.77,2.34-4.62
		S279.86,79.85,279.86,77.44z"/>
	<path d="M330.67,101.3c0-0.63,0.01-1.4,0.02-2.32c0.02-0.92,0.05-1.7,0.12-2.32h-0.09c-0.69,0.56-1.48,1.12-2.37,1.66
		s-1.87,1.05-2.93,1.5c-1.06,0.45-2.23,0.81-3.52,1.08c-1.28,0.27-2.59,0.4-3.94,0.4c-2.41,0-4.76-0.43-7.05-1.29
		s-4.34-2.22-6.12-4.08s-3.22-4.24-4.31-7.15c-1.09-2.91-1.64-6.41-1.64-10.5s0.55-7.68,1.66-10.76c1.11-3.08,2.59-5.65,4.43-7.71
		c1.84-2.06,3.96-3.62,6.35-4.66c2.39-1.05,4.85-1.57,7.38-1.57c2.78,0,5.25,0.59,7.41,1.76s3.92,2.66,5.3,4.48h0.19l0.47-5.11h9.75
		v46.27c0,2.66-0.22,4.94-0.66,6.84c-0.44,1.91-1.08,3.59-1.92,5.06c-1,1.72-2.27,3.22-3.82,4.5s-3.31,2.34-5.3,3.19
		c-1.98,0.84-4.16,1.48-6.54,1.9c-2.38,0.42-4.89,0.63-7.55,0.63c-1.5,0-2.97-0.05-4.41-0.16c-1.44-0.11-2.79-0.27-4.05-0.47
		s-2.42-0.44-3.47-0.7c-1.05-0.27-1.93-0.54-2.65-0.82v-9.05c2.06,0.69,4.23,1.21,6.49,1.57c2.27,0.36,4.65,0.54,7.15,0.54
		c4.97,0,8.81-0.96,11.53-2.88s4.08-4.84,4.08-8.74V101.3z M320.73,92.44c1.13,0,2.19-0.14,3.19-0.42c1-0.28,1.92-0.64,2.77-1.08
		s1.6-0.92,2.27-1.45c0.67-0.53,1.24-1.06,1.71-1.59V67.6c-1.19-1.41-2.66-2.58-4.41-3.52c-1.75-0.94-3.61-1.42-5.58-1.45
		c-0.69,0-1.41,0.09-2.18,0.26c-0.77,0.17-1.54,0.48-2.32,0.91c-0.78,0.44-1.52,1.02-2.23,1.76s-1.32,1.66-1.85,2.79
		c-0.53,1.13-0.96,2.47-1.29,4.03s-0.49,3.38-0.49,5.44c0,2.28,0.22,4.32,0.66,6.12c0.44,1.8,1.09,3.33,1.97,4.59
		c0.87,1.27,1.96,2.23,3.26,2.91C317.5,92.11,319.01,92.44,320.73,92.44z"/>
	<path d="M386.22,82.13c0-1.59-0.39-2.88-1.17-3.87c-0.78-0.98-1.84-1.79-3.19-2.41c-1.34-0.63-2.85-1.13-4.52-1.52
		c-1.67-0.39-3.43-0.77-5.27-1.15c-2.44-0.53-4.77-1.16-6.98-1.9c-2.22-0.73-4.17-1.75-5.86-3.05s-3.03-2.95-4.03-4.95
		c-1-2-1.5-4.5-1.5-7.5c0-3.31,0.58-6.19,1.73-8.65c1.16-2.45,2.73-4.48,4.71-6.09c1.98-1.61,4.31-2.81,6.98-3.61s5.68-1.2,9.02-1.2
		c3.34,0,6.7,0.33,10.08,0.98s6.28,1.5,8.72,2.53v9.84c-3.25-1.28-6.37-2.21-9.35-2.79c-2.98-0.58-5.79-0.87-8.41-0.87
		c-3.78,0-6.7,0.69-8.74,2.06c-2.05,1.38-3.07,3.44-3.07,6.19c0,1.59,0.34,2.91,1.01,3.94c0.67,1.03,1.59,1.88,2.74,2.55
		c1.16,0.67,2.48,1.21,3.98,1.62s3.09,0.78,4.78,1.13c2.66,0.56,5.2,1.21,7.62,1.95c2.42,0.73,4.57,1.76,6.45,3.07
		s3.36,3.02,4.45,5.13c1.09,2.11,1.64,4.8,1.64,8.09c0,3.38-0.63,6.3-1.88,8.77c-1.25,2.47-3.02,4.51-5.32,6.12s-5.09,2.8-8.37,3.59
		s-6.88,1.17-10.78,1.17c-3.41,0-6.76-0.34-10.05-1.01c-3.3-0.67-6.04-1.62-8.23-2.84v-9.7c3.09,1.34,6.11,2.32,9.05,2.93
		c2.94,0.61,5.97,0.91,9.09,0.91c1.81,0,3.59-0.15,5.34-0.45c1.75-0.3,3.32-0.8,4.71-1.52c1.39-0.72,2.51-1.7,3.35-2.93
		S386.22,83.94,386.22,82.13z"/>
	<path d="M432.76,92.35c2.16,0,4.41-0.22,6.75-0.66s4.72-1.06,7.13-1.88v8.86c-1.44,0.63-3.64,1.22-6.61,1.78s-6.05,0.84-9.23,0.84
		c-3.22,0-6.27-0.41-9.16-1.24s-5.41-2.16-7.57-4.01s-3.87-4.23-5.13-7.17s-1.9-6.5-1.9-10.69c0-4.13,0.59-7.73,1.78-10.83
		s2.78-5.66,4.78-7.69s4.29-3.55,6.87-4.57c2.58-1.02,5.24-1.52,7.99-1.52c2.88,0,5.52,0.44,7.95,1.31
		c2.42,0.88,4.52,2.25,6.28,4.13s3.14,4.29,4.13,7.24s1.48,6.45,1.48,10.48c-0.03,1.56-0.08,2.89-0.14,3.98h-29.77
		c0.16,2.09,0.63,3.88,1.41,5.37s1.8,2.69,3.07,3.61s2.74,1.59,4.43,2.02S430.79,92.35,432.76,92.35z M428.31,62.25
		c-1.41,0-2.66,0.26-3.75,0.77s-2.04,1.22-2.84,2.11s-1.43,1.93-1.9,3.12s-0.78,2.45-0.94,3.8h17.86c0-1.34-0.18-2.61-0.54-3.8
		s-0.89-2.23-1.59-3.12s-1.58-1.59-2.63-2.11S429.72,62.25,428.31,62.25z"/>
	<path d="M485.59,63.52h-0.94c-3.41,0-6.4,0.51-8.98,1.52s-4.57,2.57-5.98,4.66v30.42h-11.11V54.71h9.19l1.03,6.33H469
		c1.31-2.31,3.12-4.13,5.41-5.46s5.05-1.99,8.27-1.99c1.13,0,2.09,0.06,2.91,0.19V63.52z"/>
	<path d="M532.75,54.71l-17.58,45.42h-11.02l-17.63-45.42h11.72l6.33,17.34c1.81,4.88,3.47,9.75,4.97,14.63h0.19
		c1.31-4.22,2.94-9,4.88-14.34l6.33-17.63H532.75z"/>
	<path d="M539.31,32.25h11.67V44.3h-11.67V32.25z M539.59,54.71h11.11v45.42h-11.11V54.71z"/>
	<path d="M595.89,99.14c-1.41,0.59-3.13,1.1-5.16,1.52s-4.17,0.63-6.42,0.63c-3.28,0-6.34-0.47-9.19-1.41s-5.33-2.36-7.45-4.27
		s-3.8-4.32-5.02-7.24s-1.83-6.34-1.83-10.24c0-4.38,0.7-8.13,2.11-11.25s3.23-5.66,5.46-7.62s4.75-3.39,7.55-4.31
		c2.8-0.92,5.55-1.38,8.27-1.38c2.03,0,3.98,0.18,5.86,0.54c1.88,0.36,3.58,0.85,5.11,1.48v9.05c-1.38-0.59-2.84-1.07-4.38-1.43
		s-3.21-0.54-4.99-0.54s-3.48,0.27-5.11,0.82s-3.06,1.41-4.31,2.6s-2.24,2.76-2.98,4.71s-1.1,4.3-1.1,7.05c0,2,0.28,3.88,0.84,5.65
		s1.38,3.27,2.46,4.52s2.45,2.26,4.13,3.02s3.65,1.15,5.93,1.15c2.03,0,3.88-0.2,5.53-0.61s3.22-0.91,4.69-1.5V99.14z"/>
	<path d="M628.89,92.35c2.16,0,4.41-0.22,6.75-0.66s4.72-1.06,7.13-1.88v8.86c-1.44,0.63-3.64,1.22-6.61,1.78s-6.05,0.84-9.23,0.84
		c-3.22,0-6.27-0.41-9.16-1.24s-5.41-2.16-7.57-4.01s-3.87-4.23-5.13-7.17s-1.9-6.5-1.9-10.69c0-4.13,0.59-7.73,1.78-10.83
		s2.78-5.66,4.78-7.69s4.29-3.55,6.87-4.57c2.58-1.02,5.24-1.52,7.99-1.52c2.88,0,5.52,0.44,7.95,1.31
		c2.42,0.88,4.52,2.25,6.28,4.13s3.14,4.29,4.13,7.24s1.48,6.45,1.48,10.48c-0.03,1.56-0.08,2.89-0.14,3.98H614.5
		c0.16,2.09,0.63,3.88,1.41,5.37s1.8,2.69,3.07,3.61s2.74,1.59,4.43,2.02S626.92,92.35,628.89,92.35z M624.43,62.25
		c-1.41,0-2.66,0.26-3.75,0.77s-2.04,1.22-2.84,2.11s-1.43,1.93-1.9,3.12s-0.78,2.45-0.94,3.8h17.86c0-1.34-0.18-2.61-0.54-3.8
		s-0.89-2.23-1.59-3.12s-1.58-1.59-2.63-2.11S625.84,62.25,624.43,62.25z"/>
	<path d="M707.59,84.14h-23.62l-6.14,15.98h-12.23l24.89-62.72h10.5l24.89,62.72h-12.14L707.59,84.14z M695.68,52.5
		c-2.19,6.56-4.15,12.04-5.87,16.45l-2.14,5.58h16.21l-2.14-5.58c-1.7-4.44-3.66-9.93-5.87-16.45H695.68z"/>
	<path d="M767.03,83.3c1.38-4.94,3.08-10.23,5.11-15.89l10.83-30h16.13v62.72h-11.48V68.35c0-4.66,0.19-10.06,0.56-16.22h-0.42
		c-0.53,1.78-1.16,3.78-1.88,6s-1.47,4.41-2.25,6.56l-12.98,35.44h-7.41l-12.98-35.44c-0.78-2.16-1.53-4.34-2.25-6.56
		s-1.34-4.22-1.88-6h-0.42c0.38,5.78,0.56,11.17,0.56,16.17v31.83h-11.48V37.41h16.03l10.83,29.86c1.81,4.97,3.52,10.31,5.11,16.03
		H767.03z"/>
	<path d="M859.65,37.41v6.23l-33.56,46.88h33.98v9.61h-49.27v-6.19l33.61-46.92h-32.77v-9.61H859.65z"/>
	<path d="M908.92,75.85c-1.03,0-2.05-0.02-3.05-0.05s-1.94-0.09-2.81-0.19v24.52h-11.48V37.41h18.09c3.03,0,5.68,0.13,7.95,0.4
		c2.27,0.27,4.29,0.66,6.07,1.2c4.28,1.31,7.58,3.41,9.89,6.28c2.31,2.88,3.47,6.53,3.47,10.97c0,3.03-0.63,5.76-1.88,8.18
		s-3.08,4.48-5.48,6.16s-5.34,2.98-8.81,3.89S913.42,75.85,908.92,75.85z M903.06,65.96c0.66,0.09,1.49,0.16,2.51,0.21
		s2.07,0.07,3.16,0.07c3.09,0,5.69-0.25,7.78-0.75s3.78-1.2,5.06-2.09s2.2-1.97,2.77-3.23s0.84-2.65,0.84-4.15
		c0-1.84-0.42-3.44-1.27-4.78c-0.84-1.34-2.31-2.39-4.41-3.14c-1.09-0.38-2.45-0.65-4.05-0.82c-1.61-0.17-3.59-0.26-5.93-0.26h-6.47
		V65.96z"/>
	<path d="M960.72,37.41v53.11h29.34v9.61h-40.83V37.41H960.72z"/>
</g>
<g>
	<linearGradient id="SVGID_1_" gradientUnits="userSpaceOnUse" x1="33.1507" y1="40.7011" x2="162.4201" y2="62.8194">
		<stop  offset="0.1693" style="stop-color:#00FFFF"/>
		<stop  offset="0.6188" style="stop-color:#00B2FF"/>
		<stop  offset="0.9137" style="stop-color:#0000FF"/>
	</linearGradient>
	<path class="st0" d="M123.04,95.79L54.22,47.9c-10.82-7.53-13.39-22.27-5.74-32.91l0,0C56.14,4.33,71.11,1.81,81.93,9.34
		l68.82,47.9c10.82,7.53,13.39,22.27,5.74,32.91l0,0C148.83,100.8,133.86,103.32,123.04,95.79z"/>
</g>
<g>
	
		<linearGradient id="SVGID_00000031922513859418298340000012166303204420581546_" gradientUnits="userSpaceOnUse" x1="43.1811" y1="122.864" x2="153.1298" y2="63.9032">
		<stop  offset="5.076142e-03" style="stop-color:#31FF5B"/>
		<stop  offset="0.6827" style="stop-color:#009EDA"/>
		<stop  offset="0.9979" style="stop-color:#0042E3"/>
	</linearGradient>
	<path style="fill:url(#SVGID_00000031922513859418298340000012166303204420581546_);" d="M147.23,97.86l-77.16,33.38
		c-12.13,5.25-26.29-0.18-31.62-12.12l0,0C33.12,107.18,38.63,93.25,50.77,88l77.16-33.38c12.13-5.25,26.29,0.18,31.62,12.12l0,0
		C164.88,78.68,159.37,92.61,147.23,97.86z"/>
</g>
</svg>
